<svg width="50" height="76" viewBox="0 0 50 76" fill="none" xmlns="http://www.w3.org/2000/svg">
<path d="M17.5 70.5002H32.5001V75.5003H17.5V70.5002ZM15 63.0002H35.0001V68.0002H15V63.0002ZM42.722 7.7954C38.0235 3.0907 31.7297 0.500071 25 0.500071C21.7148 0.49224 18.4603 1.13354 15.4236 2.38714C12.387 3.64074 9.62785 5.48193 7.30482 7.80496C4.98178 10.128 3.14059 12.8871 1.88699 15.9238C0.63339 18.9604 -0.00791215 22.2149 -8.17366e-05 25.5001C-8.17366e-05 32.7845 2.79212 39.5986 7.6562 44.1939L8.33745 44.833C11.1515 47.4643 15 51.0689 15 54.2502V60.5002H22.5V40.0486L15.5812 36.1252L18.4375 32.0189L25 35.5002L31.4516 32.0017L34.436 36.0142L27.5 40.0767V60.5002H35.0001V54.2502C35.0001 51.1439 38.8063 47.5424 41.586 44.9111L42.3532 44.183C47.3564 39.4064 50.0001 32.9392 50.0001 25.5001C50.0167 22.2146 49.382 18.9583 48.1328 15.9194C46.8836 12.8806 45.0445 10.1194 42.722 7.7954Z" fill="#7AC943"/>
</svg>
