<svg width="42" height="51" viewBox="0 0 42 51" fill="none" xmlns="http://www.w3.org/2000/svg">
<path fill-rule="evenodd" clip-rule="evenodd" d="M33.875 0.5C34.782 0.500212 35.6642 0.944344 36.3876 1.76496C37.111 2.58558 37.6362 3.73787 37.8833 5.04688L37.9604 5.525L41.5438 32.3938C41.6297 33.0391 41.6242 33.7045 41.5274 34.3464C41.4306 34.9883 41.2448 35.5925 40.982 36.1196C40.7193 36.6467 40.3855 37.0849 40.0023 37.4056C39.6192 37.7264 39.1953 37.9225 38.7583 37.9813L38.4792 38H23.0833V44.25H27.25C27.781 44.2509 28.2917 44.5559 28.6778 45.1026C29.064 45.6494 29.2963 46.3967 29.3274 47.1919C29.3586 47.987 29.1861 48.7699 28.8453 49.3807C28.5045 49.9915 28.021 50.3841 27.4937 50.4781L27.25 50.5H14.75C14.219 50.4991 13.7083 50.1941 13.3221 49.6474C12.936 49.1006 12.7037 48.3533 12.6726 47.5581C12.6414 46.763 12.8139 45.9801 13.1547 45.3693C13.4955 44.7585 13.979 44.3659 14.5062 44.2719L14.75 44.25H18.9167V38H3.52083C3.08202 37.9999 2.64814 37.8612 2.24744 37.5929C1.84674 37.3245 1.4882 36.9327 1.19517 36.4427C0.90214 35.9527 0.681188 35.3757 0.546696 34.7492C0.412204 34.1226 0.367188 33.4606 0.41458 32.8063L0.456247 32.3938L4.03958 5.525C4.2172 4.19108 4.68009 2.98049 5.358 2.07699C6.03591 1.17348 6.89183 0.62639 7.79583 0.51875L8.125 0.5H33.875ZM35.9583 22.375H28.5104L29.1354 31.75H37.2083L35.9583 22.375ZM24.3229 22.375H17.6771L17.0521 31.75H24.9479L24.3229 22.375ZM13.4896 22.375H6.04166L4.79166 31.75H12.8646L13.4896 22.375ZM33.875 6.75H27.4687L28.0937 16.125H35.125L33.875 6.75ZM23.2812 6.75H18.7187L18.0937 16.125H23.9062L23.2812 6.75ZM14.5312 6.75H8.125L6.875 16.125H13.9062L14.5312 6.75Z" fill="#7AC943"/>
</svg>
