<svg width="50" height="75" viewBox="0 0 50 75" fill="none" xmlns="http://www.w3.org/2000/svg">
<path d="M10 0C8.67392 0 7.40215 0.831764 6.46447 2.31231C5.52678 3.79286 5 5.80092 5 7.89474V51.3158H10V55.2632C10 57.4342 11.125 59.2105 12.5 59.2105H15C16.375 59.2105 17.5 57.4342 17.5 55.2632V51.3158H32.5V55.2632C32.5 57.4342 33.625 59.2105 35 59.2105H37.5C38.875 59.2105 40 57.4342 40 55.2632V51.3158H45V7.89474C45 5.80092 44.4732 3.79286 43.5355 2.31231C42.5979 0.831764 41.3261 0 40 0H10ZM25 15.7895V7.89474H40V15.7895H25ZM25 23.6842H40V31.5789H25V23.6842ZM15 7.89474V23.6842H20L12.5 47.3684V31.5789H7.5L15 7.89474ZM50 67.1053V75H0V67.1053H50Z" fill="#7AC943"/>
</svg>
