<svg width="52" height="77" viewBox="0 0 52 77" fill="none" xmlns="http://www.w3.org/2000/svg">
<path d="M26 17.6667V38.5M26 38.5V59.3333M26 38.5L13.5 28.0833M26 38.5L38.5 48.9167M26 38.5L38.5 28.0833M26 38.5L13.5 48.9167M51 3.5V73.5C51 74.163 50.8244 74.7989 50.5118 75.2678C50.1993 75.7366 49.7754 76 49.3333 76H2.66667C2.22464 76 1.80072 75.7366 1.48816 75.2678C1.17559 74.7989 1 74.163 1 73.5V3.5C1 2.83696 1.17559 2.20107 1.48816 1.73223C1.80072 1.26339 2.22464 1 2.66667 1H49.3333C49.7754 1 50.1993 1.26339 50.5118 1.73223C50.8244 2.20107 51 2.83696 51 3.5Z" stroke="#7AC943" stroke-width="1.5" stroke-linecap="round" stroke-linejoin="round"/>
</svg>
